<svg width="70" height="70" fill="none" xmlns="http://www.w3.org/2000/svg"><path d="M2.9 28.879a3.267 3.267 0 00-2.718 2.817 30.19 30.19 0 00-.007 6.556 3.288 3.288 0 002.728 2.876l3.712.608a28.677 28.677 0 003.562 8.583L7.99 53.37a3.274 3.274 0 00.052 3.953c.695.851 1.435 1.665 2.216 2.438a37.73 37.73 0 002.46 2.237 3.257 3.257 0 003.91.046l3.067-2.2a28.666 28.666 0 008.575 3.562l.61 3.719a3.267 3.267 0 002.817 2.72c.665.074 1.34.126 2.02.154h.1c.608 0 1.193-.234 1.633-.653a2.313 2.313 0 00.715-1.678v-9.35a2.343 2.343 0 00-2.241-2.327c-11.166-.583-19.922-9.807-19.922-20.989 0-11.181 8.756-20.405 19.922-20.988a2.344 2.344 0 002.241-2.334V2.336A2.31 2.31 0 0035.45.658a2.298 2.298 0 00-1.726-.655c-.679.027-1.352.076-2.043.146a3.254 3.254 0 00-2.8 2.732l-.607 3.715a28.675 28.675 0 00-8.575 3.564l-3.067-2.196a3.267 3.267 0 00-3.94.063 31.767 31.767 0 00-2.426 2.204 28.21 28.21 0 00-2.237 2.462 3.267 3.267 0 00-.056 3.925l2.199 3.07a28.659 28.659 0 00-3.557 8.582L2.9 28.88zm5.825.651a26.43 26.43 0 013.834-9.238c.266-.403.255-.929-.027-1.321l-2.66-3.716a.933.933 0 01-.018-1.104 25.694 25.694 0 012.054-2.257 29.925 29.925 0 012.228-2.035.933.933 0 011.132 0l3.71 2.662c.393.281.919.291 1.322.025a26.382 26.382 0 019.232-3.835c.473-.098.837-.477.916-.954l.733-4.493a.925.925 0 01.763-.792c.617-.064 1.243-.11 1.89-.136l-.027 9.346c-12.42.635-22.164 10.894-22.157 23.331.007 12.437 9.762 22.686 22.183 23.306l-.016 9.35a26.332 26.332 0 01-1.86-.144.916.916 0 01-.774-.779l-.735-4.495a1.167 1.167 0 00-.916-.954A26.389 26.389 0 0120.3 57.46a1.167 1.167 0 00-1.322.025l-3.713 2.665a.917.917 0 01-1.087.03c-.857-.723-1.6-1.4-2.27-2.07a29.448 29.448 0 01-2.033-2.225.946.946 0 010-1.134l2.658-3.713c.282-.392.292-.918.026-1.322a26.417 26.417 0 01-3.834-9.236 1.167 1.167 0 00-.953-.916l-4.491-.736a.945.945 0 01-.786-.83 27.591 27.591 0 01.007-6.037.917.917 0 01.779-.777l4.49-.735c.478-.078.858-.445.954-.92z" fill="#E69A37"/><path d="M66.5 31.503a3.5 3.5 0 00-3.286 2.333H36.166v-3.5h18.667a3.5 3.5 0 003.5-3.5v-6.048a3.5 3.5 0 10-2.334 0v6.048c0 .644-.522 1.167-1.166 1.167H36.166v-3.5H49a1.167 1.167 0 000-2.334H36.165v-2.333h7a3.5 3.5 0 003.5-3.5V9.122a3.5 3.5 0 10-2.333 0v7.214c0 .644-.522 1.167-1.167 1.167h-7.308a2.156 2.156 0 00-2.047-1.13c-9.832.623-17.487 8.779-17.487 18.63 0 9.85 7.655 18.006 17.487 18.629h.136a2.151 2.151 0 001.911-1.13h7.308c.645 0 1.167.523 1.167 1.167v7.215a3.5 3.5 0 102.333 0v-7.215a3.5 3.5 0 00-3.5-3.5h-7v-2.333H49a1.167 1.167 0 100-2.333H36.165v-3.5h18.667c.644 0 1.167.522 1.167 1.166v6.048a3.5 3.5 0 102.333 0V43.17a3.5 3.5 0 00-3.5-3.5H36.166v-3.5h27.048a3.494 3.494 0 103.285-4.666zm-9.334-15.167a1.167 1.167 0 110 2.334 1.167 1.167 0 010-2.334zM45.5 4.67a1.167 1.167 0 110 2.333 1.167 1.167 0 010-2.333zm0 60.666a1.167 1.167 0 110-2.334 1.167 1.167 0 010 2.334zm11.666-11.667a1.167 1.167 0 110-2.333 1.167 1.167 0 010 2.333zm-38.5-18.666c.01-8.564 6.626-15.67 15.167-16.291v32.582c-8.541-.622-15.157-7.727-15.166-16.291zM66.5 36.169a1.167 1.167 0 110-2.333 1.167 1.167 0 010 2.333z" fill="#E69A37"/></svg>